<svg t="1740994915160" class="icon" viewBox="0 0 1024 1024" version="1.1" xmlns="http://www.w3.org/2000/svg" p-id="7446"
  width="200" height="200">
  <path
    d="M959.2 263.4c0-24.9-14.7-48.7-39-59.1L596.8 67.2c-4.1-1.7-8.2-3-12.3-3.8-0.3-0.1-0.6 0-0.8-0.1-3.9-0.7-7.8-1.2-11.7-1.2h-0.1c-3.7 0-7.4 0.4-11 1.1-1.1 0.2-2.2 0.5-3.2 0.7-2.6 0.6-5.2 1.4-7.8 2.3-1 0.4-2 0.7-3.1 1.2-3.4 1.5-6.7 3.1-9.8 5.1l-0.1 0.1c-3 2-5.9 4.3-8.6 6.8-0.8 0.7-1.6 1.6-2.4 2.4-1.9 2-3.7 4.1-5.4 6.4-0.7 0.9-1.4 1.8-2 2.7-2.1 3.2-4.1 6.6-5.6 10.2l-0.1 0.2 184 25.8c58.2 8.2 99 62.2 90.8 120.5l-82 585.1c-1.5 10.5-4.8 20.4-9.2 29.6 0.9-0.6 2-0.9 2.9-1.5 0 0 0.1 0 0.1-0.1 3.1-2 5.9-4.3 8.6-6.8 0.8-0.7 1.6-1.6 2.3-2.4 1.9-2 3.7-4.1 5.4-6.3 0.7-0.9 1.4-1.8 2-2.8 2.1-3.2 4.1-6.6 5.6-10.2L954 288.3c3.6-8.2 5.2-16.6 5.2-24.9"
    fill="#F7D394" p-id="7447"></path>
  <path
    d="M582.5 913.8L234 956.7c-34.9 4.3-67-20.8-71.4-55.7L90.4 314.6c-4.3-34.9 20.7-67 55.7-71.3l348.6-42.9c34.9-4.3 67 20.8 71.4 55.7l72.2 586.4c4.3 34.9-20.8 67-55.8 71.3"
    fill="#F7916D" p-id="7448"></path>
  <path
    d="M690.9 169.4l-347.8-48.7c-34.8-4.9-67.4 19.6-72.3 54.5l-1.4 9.9L489.5 158c4.3-0.6 8.7-0.8 13-0.8 53.8 0 99.3 40.2 105.9 93.6l63.5 515.5 73.6-524.6c4.8-34.9-19.7-67.4-54.6-72.3"
    fill="#71E1C7" p-id="7449"></path>
</svg>