<svg t="1740710674821" class="icon" viewBox="0 0 1024 1024" version="1.1" xmlns="http://www.w3.org/2000/svg" p-id="2456"
  width="200" height="200">
  <path
    d="M512 81.43741172C274.32945126 81.43741172 81.43741172 274.32945126 81.43741172 512s192.89203954 430.56258828 430.56258828 430.56258828 430.56258828-192.89203954 430.56258828-430.56258828S749.67054874 81.43741172 512 81.43741172zM298.01039362 607.58489459l-30.56994377 0.43056259-30.56994377 0.43056261-33.15331929-88.26533063c-18.51419131-48.65357247-33.58388188-88.6958932-33.58388189-89.12645574-0.43056259-0.43056259 12.91687766-0.86112517 28.84769341-0.8611252h29.27825602l3.87506328 12.48631506c2.15281294 6.88900142 11.19462729 35.30613223 19.80587906 62.86213789 8.61125177 27.55600565 15.93081578 49.94526024 16.36137837 49.08413506 0.43056259-0.43056259 9.04181435-28.84769341 19.80587905-62.86213787l18.94475389-62.00101273h57.26482424l-2.15281293 6.02787625c-1.29168777 3.4445007-15.93081578 43.48682141-33.15331932 89.12645578l-31.00050635 82.66801693z m204.94779203-19.80587906l-0.43056259 20.23644165H353.12240493l0.43056258-3.8750633c0.86112517-6.02787624 4.73618848-17.65306611 9.04181434-26.69488046 8.18068916-16.79194094 24.11150495-33.15331931 55.54257389-57.26482426 28.41713082-21.95869199 36.59782-33.58388188 31.86163155-45.63963434-2.58337554-6.88900142-11.19462729-12.48631504-19.37531648-12.91687764-5.16675105 0-11.62518989 2.58337554-15.0696906 6.02787622-3.01393811 2.58337554-7.319564 12.91687766-7.31956399 17.22250354 0 1.29168777-0.43056259 3.01393811-0.86112518 3.01393812-1.29168777 0.86112517-48.65357247-3.01393811-49.94526024-3.87506329-1.29168777-1.29168777 1.72225035-15.50025319 5.59731365-24.54206755 6.88900142-16.79194094 22.38925459-27.98656823 43.48682142-31.43106892 14.20856542-2.58337554 42.19513364-1.29168777 53.82032355 1.72225033 17.65306611 4.73618848 29.27825601 13.77800282 36.16725739 27.98656825 7.75012658 15.93081578 5.59731364 37.02838259-5.16675105 53.38976095-6.88900142 10.76406471-19.37531647 21.52812942-44.34794659 39.18119552-5.16675105 3.4445007-12.05575247 9.04181435-15.06969059 12.05575247L425.88748235 567.97313648h77.50126588l-0.43056258 19.80587905z m320.33856568 20.66700426H791.86568239l-16.79194094-27.55600568c-9.47237694-15.06969058-17.22250352-27.55600565-17.65306612-27.55600563-0.43056259 0-8.18068916 12.48631504-17.65306614 27.55600564l-16.79194094 27.12544306-104.19614637 0.43056261-104.19614634 0.43056258V430.19310822H662.6969059v38.75063296h-92.57095649v27.12544304l42.62569625 0.43056259 42.62569625 0.43056261 0.43056259 18.51419129 0.43056256 18.51419128-42.62569622 0.4305626-42.62569624 0.43056259v34.01444447l47.36188469 0.43056259 47.36188472 0.43056258 0.43056259 15.93081579 0.4305626 15.93081575 27.55600563-41.33400848c15.06969058-22.81981718 27.55600565-42.19513364 27.55600566-43.05625883 0-0.86112517-12.05575247-20.23644164-27.12544305-43.05625881s-27.55600565-41.76457108-27.55600566-42.19513366 13.77800282-0.43056259 31.00050635-0.43056258h30.56994378l15.06969057 26.69488046c8.18068916 14.639128 15.50025319 26.26431788 15.93081578 25.83375531 0.43056259-0.43056259 7.319564-12.05575247 15.06969057-26.69488049l14.63912803-25.83375528h30.13938118c16.79194094 0 30.13938119 0.43056259 30.13938117 0.43056258 0 0.43056259-12.05575247 19.80587905-27.12544306 43.05625883s-27.12544306 42.62569623-27.12544306 43.05625883c0 0.43056259 13.34744024 20.66700424 29.27825598 45.20907177 15.93081578 24.54206753 29.7088186 45.20907177 30.13938119 45.63963436 0-0.86112517-6.45843883-0.43056259-31.43106893-0.43056258z"
    fill="#2c2c2c" p-id="2457"></path>
</svg>