<?xml version="1.0" encoding="utf-8"?>
<!-- Generator: Adobe Illustrator 23.0.4, SVG Export Plug-In . SVG Version: 6.00 Build 0)  -->
<svg version="1.1" id="Layer_1" xmlns="http://www.w3.org/2000/svg" xmlns:xlink="http://www.w3.org/1999/xlink" x="0px" y="0px"
     viewBox="0 0 100 100" style="enable-background:new 0 0 100 100;" xml:space="preserve">
<path fill="#FFA500" d="M68.6,58.7c5,2.8,8.6,4.8,12.2,6.8c-0.2,0.6-0.4,1.2-0.6,1.8c-4.7-0.8-9.5-2.1-14.3-2.4c-11.3-0.7-22.5-1-33.8-1.4
    c-4.3-0.1-8.3,0.1-10.7-5.1c-0.6-1.4-6.1-0.6-9.3-0.7c-1.6,0-3.4,0.9-4.6,0.4c-1-0.4-2.2-2.9-1.8-3.7c0.7-1.5,2.4-3.1,4-3.5
    c3.8-0.8,7.7-1.1,11.6-1.2c22.2-0.5,44.4-0.9,66.6-1.3c1.7,0,3.8,0,5,0.9c1.1,0.8,1.9,3.4,1.4,4.4c-0.7,1.4-2.8,2.7-4.4,2.9
    C83.3,57.6,76.7,58,68.6,58.7z"/>
</svg>